<svg xmlns="http://www.w3.org/2000/svg" viewBox="0 0 1080 566"><defs><style>.cls-1{fill:#035453;}.cls-2{fill:#fff;}.cls-3{fill:#00b694;}.cls-4{fill:#ff7e04;}</style></defs><g id="Capa_2" data-name="Capa 2"><g id="Capa_1-2" data-name="Capa 1"><rect class="cls-1" width="1080" height="566"/><path class="cls-2" d="M300.84,95H530.7a75.45,75.45,0,0,1-75.45,75.45H378V389.79A77.2,77.2,0,0,1,300.84,467h0Z"/><path class="cls-3" d="M453.5,305.57H392.08V228.36H530.7A77.2,77.2,0,0,1,453.5,305.57Z"/><path class="cls-3" d="M284.32,95H54.45a75.45,75.45,0,0,0,75.45,75.45h77.21V389.79A77.21,77.21,0,0,0,284.32,467h0Z"/><path class="cls-2" d="M131.65,305.57h61.42V228.36H54.45A77.2,77.2,0,0,0,131.65,305.57Z"/><path class="cls-2" d="M591.54,232.94V249.4H624v24.94H591.54v36.24H563.47V207.16h64.28v25.78Z"/><path class="cls-2" d="M639.06,276.33V230.8H665.9v44.33c0,8.42,4.42,13.38,11.59,13.38s11.51-5,11.51-13.38V230.8h26.84v45.53c0,22.32-15.33,36.86-38.35,36.86S639.06,298.65,639.06,276.33Z"/><path class="cls-2" d="M803.57,232.81H776.13v77.77h-28V232.81H720.74V207.16h82.83Z"/><path class="cls-2" d="M883.85,269.93a51.64,51.64,0,0,1-.55,7.28H825.44c1.75,9.15,7.43,13.88,15.9,13.88,6.27,0,11.51-2.81,14.09-7.48h26.71c-5.48,18.21-21.25,29.58-40.8,29.58C817,313.19,799,295,799,270.63s17.87-42.44,42.32-42.44c25.12,0,42.51,18.34,42.51,41.74ZM825.91,262h31.5c-2.35-8-8-12.27-16.07-12.27C833.52,249.72,828.08,254.07,825.91,262Z"/><path class="cls-2" d="M926.12,313.19c-21.24,0-34.15-11.48-34.39-28.77h25.83c0,5.83,4,8.52,9.06,8.52,3.92,0,7.64-2.05,7.64-6.17,0-4.6-5.89-5.92-13.38-7.18-12.08-2-28.1-5.74-28.1-25.09,0-16,13.31-26.32,33.28-26.32s32.7,10.81,33,27H933.93c0-5.1-3.35-7.47-8.21-7.47-4.3,0-7.19,2.19-7.19,5.88,0,4.54,6,5.6,13.36,6.95,12.31,2.24,28.68,4.86,28.68,25.09,0,16.67-13.75,27.58-34.46,27.58Z"/><path class="cls-2" d="M1024.94,286.51v24.07h-18.46c-17.24,0-27.71-10.79-27.71-28.52V252H964.51v-6.42l34.91-38.07h5.51V230.8h19.58V252h-18.9v25.39c0,5.71,3.37,9.16,9,9.16Z"/><path class="cls-4" d="M592.06,364.84h-5.28a2.18,2.18,0,0,1-1.92-1.2l-5.05-10.09c-.14,0-.34.05-.48.05h-4.71v9.51a1.71,1.71,0,0,1-1.68,1.73h-4.81a1.72,1.72,0,0,1-1.73-1.73V332.94a1.72,1.72,0,0,1,1.73-1.73h11.2c8.55,0,12.93,4.85,12.93,11.63a9.86,9.86,0,0,1-5.19,8.89l6.1,11.19A1.29,1.29,0,0,1,592.06,364.84Zm-17.44-18.16h4.71c2.4,0,4.61-1,4.61-3.84,0-2.5-1.87-3.9-4.61-3.9h-4.71Z"/><path class="cls-4" d="M619.69,353.31A1.71,1.71,0,0,1,618,355H602c.82,2.84,3.17,4.13,6.15,4.13a6.7,6.7,0,0,0,4.32-1.49,1.24,1.24,0,0,1,1.49-.14l3.42,2a1.36,1.36,0,0,1,.33,2,12.66,12.66,0,0,1-9.56,3.89c-8.26,0-13.69-5.19-13.69-12.73A12.54,12.54,0,0,1,607,339.91C613.83,339.91,619.84,344.23,619.69,353.31Zm-7.11-3a4.93,4.93,0,0,0-5.28-4.18,5.26,5.26,0,0,0-5.24,4.18Z"/><path class="cls-4" d="M643.19,357.25c0,5.14-3.75,8.17-10.91,8.17-4.32,0-8.5-1.2-10.09-4.47a1.25,1.25,0,0,1,.77-1.78l4.76-1.49a1.39,1.39,0,0,1,1.44.48,3.5,3.5,0,0,0,3,1.21c1.63,0,2.93-.49,2.93-1.78,0-1.64-2.55-1.59-5.39-2.21-4.7-1-7.2-2.69-7.2-7.5,0-5.09,4.32-8,10.42-8,3.66,0,7.31,1.53,8.85,4.7a1.35,1.35,0,0,1-.87,1.83l-4.13,1a1.29,1.29,0,0,1-1.3-.53,3,3,0,0,0-2.5-1.06c-1.54,0-2.93.44-2.93,1.83,0,1.58,2.6,1.68,4.52,2.06C640.74,351.05,643.19,352.78,643.19,357.25Z"/><path class="cls-4" d="M670.62,353.31a1.71,1.71,0,0,1-1.68,1.73h-16c.82,2.84,3.17,4.13,6.15,4.13a6.73,6.73,0,0,0,4.33-1.49,1.24,1.24,0,0,1,1.49-.14l3.41,2a1.36,1.36,0,0,1,.34,2,12.68,12.68,0,0,1-9.57,3.89c-8.26,0-13.69-5.19-13.69-12.73a12.54,12.54,0,0,1,12.54-12.78C664.76,339.91,670.77,344.23,670.62,353.31Zm-7.11-3a4.93,4.93,0,0,0-5.28-4.18,5.26,5.26,0,0,0-5.24,4.18Z"/><path class="cls-4" d="M693,340.48h4.8a1.72,1.72,0,0,1,1.73,1.73v20.9a1.72,1.72,0,0,1-1.73,1.73H693a1.29,1.29,0,0,1-1.3-1.29v-1.11a8.29,8.29,0,0,1-6.87,3c-7.59,0-11.68-6.39-11.68-12.73s4.09-12.78,11.68-12.78a8.32,8.32,0,0,1,6.87,3v-1.1A1.3,1.3,0,0,1,693,340.48Zm-1.54,12.21a5,5,0,0,0-5.24-5.24,5.22,5.22,0,0,0,0,10.43A5,5,0,0,0,691.43,352.69Z"/><path class="cls-4" d="M718.77,340.05a1.3,1.3,0,0,1,1.54,1.25v5.52a1.31,1.31,0,0,1-1.39,1.3c-5.67-.38-6.35,3.27-6.35,7.11v7.88a1.71,1.71,0,0,1-1.68,1.73h-4.42a1.71,1.71,0,0,1-1.68-1.73v-20.9a1.71,1.71,0,0,1,1.68-1.73h4.42a1.71,1.71,0,0,1,1.68,1.73v2A9.38,9.38,0,0,1,718.77,340.05Z"/><path class="cls-4" d="M739,356.39a1.25,1.25,0,0,1,1.59-.2l4.61,2.69a1.32,1.32,0,0,1,.34,1.93,13.12,13.12,0,0,1-10.29,4.61c-7.59,0-13.07-5.53-13.07-12.73s5.48-12.78,13.07-12.78a13.09,13.09,0,0,1,10.29,4.61,1.31,1.31,0,0,1-.34,1.92l-4.61,2.74a1.32,1.32,0,0,1-1.59-.24,5.23,5.23,0,0,0-3.75-1.49,5.22,5.22,0,0,0,0,10.43A5.23,5.23,0,0,0,739,356.39Z"/><path class="cls-4" d="M772.83,349.61v13.5a1.71,1.71,0,0,1-1.68,1.73h-4.38a1.72,1.72,0,0,1-1.73-1.73V351.73c0-2.84-1.73-4.19-3.89-4.19s-3.89,1.45-3.89,4.19v11.38a1.72,1.72,0,0,1-1.73,1.73h-4.37a1.68,1.68,0,0,1-1.68-1.73V332.94a1.68,1.68,0,0,1,1.68-1.73h4.37a1.72,1.72,0,0,1,1.73,1.73v9.75a8.29,8.29,0,0,1,6.63-2.78C770,339.91,772.83,344.71,772.83,349.61Z"/><path class="cls-4" d="M815.74,355c0,5.48-4.76,10.43-13.17,10.43-5.57,0-10.86-1.92-13-6.82a1.76,1.76,0,0,1,1.1-2.31l4.38-1.35a1.71,1.71,0,0,1,2,.77,5.86,5.86,0,0,0,5.39,2.74c2.83,0,4.9-1.1,4.9-3.31,0-2.55-3.27-2.89-7.07-3.85-6.72-1.68-9.8-4.75-9.8-10.38,0-6.48,5.38-10.33,12.35-10.33,5.09,0,9.47,2.36,11.34,6.54a1.69,1.69,0,0,1-1.15,2.35l-4.38,1.11a1.79,1.79,0,0,1-1.87-.77,4.55,4.55,0,0,0-4.28-2.16c-2.4,0-4,1.29-4,3.22,0,2.64,4,3.26,6.63,4C813.33,347.16,815.74,349.71,815.74,355Z"/><path class="cls-4" d="M843.56,353.31a1.71,1.71,0,0,1-1.68,1.73h-16c.81,2.84,3.17,4.13,6.15,4.13a6.7,6.7,0,0,0,4.32-1.49,1.24,1.24,0,0,1,1.49-.14l3.41,2a1.36,1.36,0,0,1,.34,2,12.68,12.68,0,0,1-9.56,3.89c-8.27,0-13.7-5.19-13.7-12.73a12.54,12.54,0,0,1,12.54-12.78C837.7,339.91,843.7,344.23,843.56,353.31Zm-7.11-3a5,5,0,0,0-5.29-4.18,5.26,5.26,0,0,0-5.24,4.18Z"/><path class="cls-4" d="M871.28,353.31A1.71,1.71,0,0,1,869.6,355h-16c.82,2.84,3.17,4.13,6.15,4.13a6.75,6.75,0,0,0,4.33-1.49,1.24,1.24,0,0,1,1.49-.14l3.41,2a1.36,1.36,0,0,1,.33,2,12.64,12.64,0,0,1-9.56,3.89c-8.26,0-13.69-5.19-13.69-12.73a12.54,12.54,0,0,1,12.54-12.78C865.42,339.91,871.43,344.23,871.28,353.31Zm-7.11-3a4.93,4.93,0,0,0-5.28-4.18,5.26,5.26,0,0,0-5.24,4.18Z"/><path class="cls-4" d="M894,331.21h4.37a1.72,1.72,0,0,1,1.73,1.73v30.17a1.72,1.72,0,0,1-1.73,1.73h-4.8a1.29,1.29,0,0,1-1.3-1.29v-1.11c-1.39,1.78-3.55,3-6.87,3-7.54,0-11.68-6.39-11.68-12.73s4.14-12.78,11.68-12.78c3.32,0,5.48,1.2,6.87,3v-9.94A1.72,1.72,0,0,1,894,331.21Zm-2,21.48a5.22,5.22,0,1,0-5.19,5.19A5,5,0,0,0,892,352.69Z"/><path class="cls-4" d="M931.78,352.69c0,6.34-4.13,12.73-11.68,12.73-3.31,0-5.48-1.2-6.87-3v1.11a1.28,1.28,0,0,1-1.3,1.29h-4.8a1.72,1.72,0,0,1-1.73-1.73V332.94a1.72,1.72,0,0,1,1.73-1.73h4.37a1.72,1.72,0,0,1,1.73,1.73v9.94c1.39-1.77,3.56-3,6.87-3C927.65,339.91,931.78,346.3,931.78,352.69Zm-7.88,0a5.22,5.22,0,1,0-5.24,5.19A4.94,4.94,0,0,0,923.9,352.69Z"/><path class="cls-4" d="M959.36,353.31a1.71,1.71,0,0,1-1.68,1.73h-16c.81,2.84,3.17,4.13,6.15,4.13a6.7,6.7,0,0,0,4.32-1.49,1.24,1.24,0,0,1,1.49-.14l3.41,2a1.35,1.35,0,0,1,.34,2,12.66,12.66,0,0,1-9.56,3.89c-8.27,0-13.7-5.19-13.7-12.73a12.54,12.54,0,0,1,12.54-12.78C953.5,339.91,959.5,344.23,959.36,353.31Zm-7.11-3a5,5,0,0,0-5.29-4.18,5.25,5.25,0,0,0-5.23,4.18Z"/><path class="cls-4" d="M982.09,331.21h4.37a1.72,1.72,0,0,1,1.73,1.73v30.17a1.72,1.72,0,0,1-1.73,1.73h-4.8a1.28,1.28,0,0,1-1.3-1.29v-1.11c-1.4,1.78-3.56,3-6.87,3-7.55,0-11.68-6.39-11.68-12.73s4.13-12.78,11.68-12.78a8.21,8.21,0,0,1,6.87,3v-9.94A1.72,1.72,0,0,1,982.09,331.21Zm-2,21.48a5.22,5.22,0,1,0-5.19,5.19A5,5,0,0,0,980.12,352.69Z"/></g></g></svg>